HIERARCHY
ROOT Root
{
  OFFSET 0.0 0.0 0.0
  CHANNELS 6 Xposition Yposition Zposition Zrotation Yrotation Xrotation
  JOINT Hips
  {
    OFFSET 0.0 100.0 0.0
    CHANNELS 6 Xposition Yposition Zposition Zrotation Yrotation Xrotation
    JOINT Spine1
    {
      OFFSET 5.003913 -0.037094 -0.013727
      CHANNELS 3 Zrotation Yrotation Xrotation
      JOINT Spine2
      {
        OFFSET 7.125363 -1e-06 0.0
        CHANNELS 3 Zrotation Yrotation Xrotation
        JOINT Chest
        {
          OFFSET 7.594027 1e-06 0.0
          CHANNELS 3 Zrotation Yrotation Xrotation
          JOINT Neck1
          {
            OFFSET 26.313086 -0.460272 -0.181672
            CHANNELS 3 Zrotation Yrotation Xrotation
            JOINT Neck2
            {
              OFFSET 8.045911 0.0 0.0
              CHANNELS 3 Zrotation Yrotation Xrotation
              JOINT Head
              {
                OFFSET 6.432774 0.0 0.0
                CHANNELS 3 Zrotation Yrotation Xrotation
                JOINT HeadEnd
                {
                  OFFSET 16.169773 0.06451 0.00362
                  CHANNELS 3 Zrotation Yrotation Xrotation
                }
                JOINT Jaw
                {
                  OFFSET 0.108741 3.12938 0.002639
                  CHANNELS 3 Zrotation Yrotation Xrotation
                }
                JOINT LeftEye
                {
                  OFFSET 4.45173 8.166359 3.206392
                  CHANNELS 3 Zrotation Yrotation Xrotation
                }
                JOINT RightEye
                {
                  OFFSET 4.436895 8.135758 -3.222429
                  CHANNELS 3 Zrotation Yrotation Xrotation
                }
              }
            }
          }
          JOINT LeftShoulder
          {
            OFFSET 23.218927 5.195579 1.621656
            CHANNELS 3 Zrotation Yrotation Xrotation
            JOINT LeftArm
            {
              OFFSET 15.902118 2e-06 -2e-06
              CHANNELS 3 Zrotation Yrotation Xrotation
              JOINT LeftForeArm
              {
                OFFSET 28.739307 0.0 -1e-06
                CHANNELS 3 Zrotation Yrotation Xrotation
                JOINT LeftHand
                {
                  OFFSET 27.093981 -4e-06 0.0
                  CHANNELS 3 Zrotation Yrotation Xrotation
                  JOINT LeftHandThumb1
                  {
                    OFFSET 2.276781 3.380274 0.83384
                    CHANNELS 3 Zrotation Yrotation Xrotation
                    JOINT LeftHandThumb2
                    {
                      OFFSET 4.705309 -1e-06 -1e-06
                      CHANNELS 3 Zrotation Yrotation Xrotation
                      JOINT LeftHandThumb3
                      {
                        OFFSET 2.798515 0.0 3e-06
                        CHANNELS 3 Zrotation Yrotation Xrotation
                        JOINT LeftHandThumbEnd
                        {
                          OFFSET 3.180793 4e-06 -4e-06
                          CHANNELS 3 Zrotation Yrotation Xrotation
                        }
                      }
                    }
                  }
                  JOINT LeftHandIndex1
                  {
                    OFFSET 3.247786 2.352677 0.137192
                    CHANNELS 3 Zrotation Yrotation Xrotation
                    JOINT LeftHandIndex2
                    {
                      OFFSET 6.367095 1e-06 0.0
                      CHANNELS 3 Zrotation Yrotation Xrotation
                      JOINT LeftHandIndex3
                      {
                        OFFSET 3.662364 0.0 0.0
                        CHANNELS 3 Zrotation Yrotation Xrotation
                        JOINT LeftHandIndex4
                        {
                          OFFSET 2.329242 4e-06 -4e-06
                          CHANNELS 3 Zrotation Yrotation Xrotation
                          JOINT LeftHandIndexEnd
                          {
                            OFFSET 2.767823 1e-06 0.0
                            CHANNELS 3 Zrotation Yrotation Xrotation
                          }
                        }
                      }
                    }
                  }
                  JOINT LeftHandMiddle1
                  {
                    OFFSET 3.163612 0.945023 -0.406112
                    CHANNELS 3 Zrotation Yrotation Xrotation
                    JOINT LeftHandMiddle2
                    {
                      OFFSET 6.276789 3e-06 0.0
                      CHANNELS 3 Zrotation Yrotation Xrotation
                      JOINT LeftHandMiddle3
                      {
                        OFFSET 4.35652 -1e-06 4e-06
                        CHANNELS 3 Zrotation Yrotation Xrotation
                        JOINT LeftHandMiddle4
                        {
                          OFFSET 2.996877 0.0 8e-06
                          CHANNELS 3 Zrotation Yrotation Xrotation
                          JOINT LeftHandMiddleEnd
                          {
                            OFFSET 2.323256 3e-06 -4e-06
                            CHANNELS 3 Zrotation Yrotation Xrotation
                          }
                        }
                      }
                    }
                  }
                  JOINT LeftHandRing1
                  {
                    OFFSET 2.882606 -0.309162 0.107445
                    CHANNELS 3 Zrotation Yrotation Xrotation
                    JOINT LeftHandRing2
                    {
                      OFFSET 6.033198 0.0 4e-06
                      CHANNELS 3 Zrotation Yrotation Xrotation
                      JOINT LeftHandRing3
                      {
                        OFFSET 4.350578 3e-06 0.0
                        CHANNELS 3 Zrotation Yrotation Xrotation
                        JOINT LeftHandRing4
                        {
                          OFFSET 2.651321 2e-06 -7e-06
                          CHANNELS 3 Zrotation Yrotation Xrotation
                          JOINT LeftHandRingEnd
                          {
                            OFFSET 1.937663 1e-06 -4e-06
                            CHANNELS 3 Zrotation Yrotation Xrotation
                          }
                        }
                      }
                    }
                  }
                  JOINT LeftHandPinky1
                  {
                    OFFSET 2.865315 -1.525436 0.575687
                    CHANNELS 3 Zrotation Yrotation Xrotation
                    JOINT LeftHandPinky2
                    {
                      OFFSET 5.54936 1e-06 -8e-06
                      CHANNELS 3 Zrotation Yrotation Xrotation
                      JOINT LeftHandPinky3
                      {
                        OFFSET 3.070974 0.0 -4e-06
                        CHANNELS 3 Zrotation Yrotation Xrotation
                        JOINT LeftHandPinky4
                        {
                          OFFSET 1.549672 1e-06 0.0
                          CHANNELS 3 Zrotation Yrotation Xrotation
                          JOINT LeftHandPinkyEnd
                          {
                            OFFSET 1.952123 0.0 0.0
                            CHANNELS 3 Zrotation Yrotation Xrotation
                          }
                        }
                      }
                    }
                  }
                }
              }
            }
          }
          JOINT RightShoulder
          {
            OFFSET 23.161716 5.296122 -1.380114
            CHANNELS 3 Zrotation Yrotation Xrotation
            JOINT RightArm
            {
              OFFSET -16.027195 -2e-06 1.1e-05
              CHANNELS 3 Zrotation Yrotation Xrotation
              JOINT RightForeArm
              {
                OFFSET -28.736639 4e-06 2e-06
                CHANNELS 3 Zrotation Yrotation Xrotation
                JOINT RightHand
                {
                  OFFSET -27.133619 6e-06 0.0
                  CHANNELS 3 Zrotation Yrotation Xrotation
                  JOINT RightHandThumb1
                  {
                    OFFSET -2.274328 -3.351035 -0.83067
                    CHANNELS 3 Zrotation Yrotation Xrotation
                    JOINT RightHandThumb2
                    {
                      OFFSET -4.703594 -3e-06 2e-06
                      CHANNELS 3 Zrotation Yrotation Xrotation
                      JOINT RightHandThumb3
                      {
                        OFFSET -2.794935 -4e-06 -3e-06
                        CHANNELS 3 Zrotation Yrotation Xrotation
                        JOINT RightHandThumbEnd
                        {
                          OFFSET -3.183852 4e-06 1e-06
                          CHANNELS 3 Zrotation Yrotation Xrotation
                        }
                      }
                    }
                  }
                  JOINT RightHandIndex1
                  {
                    OFFSET -3.253496 -2.33755 -0.127667
                    CHANNELS 3 Zrotation Yrotation Xrotation
                    JOINT RightHandIndex2
                    {
                      OFFSET -6.344434 0.0 0.0
                      CHANNELS 3 Zrotation Yrotation Xrotation
                      JOINT RightHandIndex3
                      {
                        OFFSET -3.654871 0.0 -8e-06
                        CHANNELS 3 Zrotation Yrotation Xrotation
                        JOINT RightHandIndex4
                        {
                          OFFSET -2.327586 -1e-06 0.0
                          CHANNELS 3 Zrotation Yrotation Xrotation
                          JOINT RightHandIndexEnd
                          {
                            OFFSET -2.770001 3e-06 8e-06
                            CHANNELS 3 Zrotation Yrotation Xrotation
                          }
                        }
                      }
                    }
                  }
                  JOINT RightHandMiddle1
                  {
                    OFFSET -3.168223 -0.944764 0.411762
                    CHANNELS 3 Zrotation Yrotation Xrotation
                    JOINT RightHandMiddle2
                    {
                      OFFSET -6.266691 -1e-06 -4e-06
                      CHANNELS 3 Zrotation Yrotation Xrotation
                      JOINT RightHandMiddle3
                      {
                        OFFSET -4.348901 0.0 0.0
                        CHANNELS 3 Zrotation Yrotation Xrotation
                        JOINT RightHandMiddle4
                        {
                          OFFSET -3.00024 2e-06 -4e-06
                          CHANNELS 3 Zrotation Yrotation Xrotation
                          JOINT RightHandMiddleEnd
                          {
                            OFFSET -2.321477 -4e-06 -4e-06
                            CHANNELS 3 Zrotation Yrotation Xrotation
                          }
                        }
                      }
                    }
                  }
                  JOINT RightHandRing1
                  {
                    OFFSET -2.885654 0.293261 -0.119232
                    CHANNELS 3 Zrotation Yrotation Xrotation
                    JOINT RightHandRing2
                    {
                      OFFSET -6.032835 -1e-06 -4e-06
                      CHANNELS 3 Zrotation Yrotation Xrotation
                      JOINT RightHandRing3
                      {
                        OFFSET -4.33881 0.0 -4e-06
                        CHANNELS 3 Zrotation Yrotation Xrotation
                        JOINT RightHandRing4
                        {
                          OFFSET -2.654903 -4e-06 -4e-06
                          CHANNELS 3 Zrotation Yrotation Xrotation
                          JOINT RightHandRingEnd
                          {
                            OFFSET -1.935122 0.0 4e-06
                            CHANNELS 3 Zrotation Yrotation Xrotation
                          }
                        }
                      }
                    }
                  }
                  JOINT RightHandPinky1
                  {
                    OFFSET -2.866241 1.503904 -0.60527
                    CHANNELS 3 Zrotation Yrotation Xrotation
                    JOINT RightHandPinky2
                    {
                      OFFSET -5.553177 -2e-06 0.0
                      CHANNELS 3 Zrotation Yrotation Xrotation
                      JOINT RightHandPinky3
                      {
                        OFFSET -3.062664 -1e-06 -4e-06
                        CHANNELS 3 Zrotation Yrotation Xrotation
                        JOINT RightHandPinky4
                        {
                          OFFSET -1.546529 2e-06 4e-06
                          CHANNELS 3 Zrotation Yrotation Xrotation
                          JOINT RightHandPinkyEnd
                          {
                            OFFSET -1.952341 0.0 -4e-06
                            CHANNELS 3 Zrotation Yrotation Xrotation
                          }
                        }
                      }
                    }
                  }
                }
              }
            }
          }
        }
      }
    }
    JOINT LeftLeg
    {
      OFFSET -8.443107 2.567604 10.043214
      CHANNELS 3 Zrotation Yrotation Xrotation
      JOINT LeftShin
      {
        OFFSET 43.229198 1e-06 -1e-06
        CHANNELS 3 Zrotation Yrotation Xrotation
        JOINT LeftFoot
        {
          OFFSET 42.298611 1e-06 1e-06
          CHANNELS 3 Zrotation Yrotation Xrotation
          JOINT LeftToeBase
          {
            OFFSET 14.165858 1e-06 0.0
            CHANNELS 3 Zrotation Yrotation Xrotation
            JOINT LeftToeEnd
            {
              OFFSET 6.7141 -0.234461 0.0
              CHANNELS 3 Zrotation Yrotation Xrotation
            }
          }
        }
      }
    }
    JOINT RightLeg
    {
      OFFSET -8.303923 2.592729 -10.047278
      CHANNELS 3 Zrotation Yrotation Xrotation
      JOINT RightShin
      {
        OFFSET -43.369682 0.0 1e-06
        CHANNELS 3 Zrotation Yrotation Xrotation
        JOINT RightFoot
        {
          OFFSET -42.260784 4e-06 2e-06
          CHANNELS 3 Zrotation Yrotation Xrotation
          JOINT RightToeBase
          {
            OFFSET -14.222245 -2e-06 -1e-06
            CHANNELS 3 Zrotation Yrotation Xrotation
            JOINT RightToeEnd
            {
              OFFSET -6.660062 0.232574 -2e-06
              CHANNELS 3 Zrotation Yrotation Xrotation
            }
          }
        }
      }
    }
  }
}
MOTION
Frames: 5
Frame Time: 0.03333333333333333
0.0 0.0 0.0 0.0 -0.0 0.0 -42.616512 96.319267 358.083557 94.500801 4.605404 93.249123 2.991375 -3.340049 -0.257126 -10.028056 -1.023831 -1.107676 16.549438 -0.717641 -3.420904 17.02882 0.768957 2.289341 -2.407982 -0.646712 -1.159727 -41.339039 -2.181886 -0.669626 7e-06 -0.0 0.0 0.103203 0.038627 0.023088 0.156897 -0.050745 -0.01598 0.218271 0.119284 0.065928 -111.334869 -78.039902 130.27092 34.457359 -42.672363 13.239077 39.980259 -0.306502 -0.13925 1.934648 0.707331 11.083636 17.636635 -26.322725 52.411182 -19.46666 -14.395598 29.410389 0.0 -8.774822 -2e-06 15.792103 -18.153551 6.031711 -0.609776 -1.795653 -3.889327 -4.80709 -11.046809 -2.937852 3e-06 -20.976015 -1e-06 -5.019972 -25.033556 -4.031882 7e-06 -0.0 1e-06 -10.634536 -5.686971 -3.565588 10.573275 -17.922951 -3.113901 2e-06 -13.821209 1e-06 -0.501778 -31.181505 -4.027017 -11.530125 -59.738865 7.058057 -13.982716 -7.150201 -2.875041 13.772729 -8.401493 -3.218241 0.347733 -34.211555 0.771651 -0.96303 -17.73337 2.621019 0.0 0.0 0.0 -17.346422 -20.095221 -4.201779 21.757561 -1.638373 3.866428 1e-06 -6.338824 1e-06 -1.697591 -22.591749 -6.19401 -0.0 -4e-06 -3e-06 69.235329 -77.505699 129.74202 23.996323 -52.016281 18.755056 37.841351 0.453854 0.168328 -0.571534 2.325115 1.22453 22.182117 -20.375898 49.933315 -16.701811 -16.74353 28.476528 -4e-06 -12.690601 -3e-06 16.551378 -17.366806 2.435511 -0.105919 -1.513856 -4.275882 -5.039039 -5.612868 -2.953554 5e-06 -11.02052 -3e-06 -6.111296 -15.89533 -3.84047 -0.0 -0.0 1e-06 -10.283367 -5.680286 -4.34184 11.028292 -11.302404 -2.372632 -1.384269 -14.238579 -6.320121 -0.625439 -26.924187 -3.827599 -4.165747 -49.604454 -3.807255 -13.708521 -7.363472 -3.720941 18.141146 -14.052738 -3.242674 6e-06 -18.787268 -2e-06 -0.429711 -8.456043 2.555504 0.0 -0.0 2e-06 -15.923532 -20.094481 -5.473588 30.419207 -7.190827 1.735928 3e-06 -8.162925 -0.0 -1.8619 -22.861473 -6.167942 1e-06 -2e-06 -4e-06 -161.974426 2.565079 -6.211797 10.865827 -0.135261 0.527723 -88.25824 6.206287 -1.2949 -7.139693 1.399152 2.153947 -1.0 0.0 -0.0 -20.433552 -11.92957 -13.200377 7.283195 0.19008 -0.160498 -66.816544 -3.335849 -7.860894 -9.852626 0.975449 1.634843 -1.000001 1e-06 0.0 
0.0 0.0 0.0 0.0 -0.0 0.0 -43.771374 96.364693 360.940582 93.005646 3.882467 93.606941 2.499911 -2.334103 -0.250926 -10.211459 -0.89353 -1.091192 16.790939 -0.152787 -3.636739 16.556517 0.364032 2.36297 -2.441761 -0.710011 -1.08826 -40.808041 -2.118424 -0.819933 7e-06 0.0 0.0 0.079681 0.032947 0.00667 0.190947 -0.043191 -0.022869 0.239987 0.102749 0.041924 -118.347603 -77.115471 137.206009 33.572285 -41.441162 13.343287 38.832649 -0.324441 -0.17806 2.089962 1.327033 10.307339 17.636633 -26.322737 52.411213 -19.466667 -14.3956 29.410398 -2e-06 -8.774824 -1e-06 15.910277 -18.082964 5.965152 -0.609777 -1.795656 -3.889327 -4.80709 -11.046813 -2.937852 6e-06 -20.976021 -3e-06 -5.01997 -25.033564 -4.031883 7e-06 -0.0 -1e-06 -10.634537 -5.686973 -3.565585 10.573278 -17.922956 -3.113902 4e-06 -13.821213 0.0 -0.501777 -31.181519 -4.027016 -11.227798 -59.729252 6.939777 -13.982718 -7.1502 -2.875041 13.772733 -8.401495 -3.218243 0.347738 -34.211559 0.771651 -0.963027 -17.733372 2.621021 -0.0 1e-06 1e-06 -17.346422 -20.095221 -4.201783 21.757566 -1.638377 3.866431 1e-06 -6.338825 0.0 -1.697587 -22.591749 -6.19401 1e-06 -4e-06 -2e-06 64.305222 -77.065903 134.787109 24.368042 -50.292892 18.318939 37.69323 0.472223 0.157118 -0.467652 2.394512 1.381275 22.182117 -20.375898 49.933319 -16.701813 -16.743528 28.47653 -3e-06 -12.6906 -1e-06 16.472513 -17.394108 2.428429 -0.105919 -1.513857 -4.275881 -5.039041 -5.612872 -2.953558 5e-06 -11.020525 -2e-06 -6.111296 -15.895334 -3.840475 0.0 -2e-06 -1e-06 -10.283369 -5.680288 -4.34184 11.028296 -11.302407 -2.372632 -1.384268 -14.238582 -6.320121 -0.625438 -26.924189 -3.827599 -3.996681 -49.74712 -3.869298 -13.708525 -7.363475 -3.720938 18.141153 -14.052741 -3.242676 8e-06 -18.787271 -3e-06 -0.429711 -8.456049 2.555507 -1e-06 0.0 -0.0 -15.923532 -20.094484 -5.473585 30.41921 -7.190829 1.735924 4e-06 -8.162927 -1e-06 -1.8619 -22.861479 -6.167942 -1e-06 -2e-06 -2e-06 -161.268921 -0.11068 -7.142426 11.533981 -0.149513 0.560674 -87.100014 7.399549 -1.995786 -8.678611 1.4417 2.152142 -0.999999 -0.0 -0.0 -21.363571 -10.096665 -11.985394 10.087222 0.174418 -0.068915 -61.664028 -4.45738 -5.825599 -9.58324 0.940949 1.653067 -1.000002 -0.0 0.0 
0.0 0.0 0.0 0.0 -0.0 0.0 -45.059708 96.56826 363.944794 91.867386 3.466494 93.732704 2.176148 -1.77292 -0.31755 -10.301274 -0.829116 -1.006873 16.734171 0.392931 -3.791151 16.520325 0.092681 2.436942 -2.454184 -0.80635 -1.065265 -40.593807 -2.006042 -0.910404 7e-06 0.0 0.0 0.066384 0.024065 -0.001717 0.204647 -0.048231 -0.039705 0.232333 0.095045 0.043028 -120.433846 -76.75621 139.315582 33.205486 -41.385357 13.184733 37.625751 -0.167752 -0.172893 1.752748 1.579437 9.887196 17.636625 -26.322729 52.411194 -19.46665 -14.395594 29.410389 -0.0 -8.774819 -3e-06 15.923493 -17.955141 6.010938 -0.609776 -1.795655 -3.889328 -4.807088 -11.046809 -2.937849 5e-06 -20.976015 -3e-06 -5.01997 -25.033558 -4.031882 8e-06 -1e-06 1e-06 -10.634533 -5.686971 -3.565588 10.573271 -17.922947 -3.1139 3e-06 -13.821206 2e-06 -0.501778 -31.181498 -4.027013 -11.257852 -59.70002 7.183392 -13.982712 -7.150198 -2.87504 13.772726 -8.40149 -3.218242 0.347733 -34.211544 0.771655 -0.963028 -17.733366 2.62102 -1e-06 1e-06 1e-06 -17.346418 -20.095215 -4.20178 21.757555 -1.638373 3.866428 1e-06 -6.338823 1e-06 -1.697591 -22.591742 -6.194003 -0.0 -5e-06 -2e-06 62.714298 -77.114861 136.398514 25.212183 -49.710514 17.545324 37.332268 0.394436 0.192237 -0.634133 2.515154 1.542053 22.182114 -20.375898 49.933327 -16.701817 -16.74353 28.476532 -3e-06 -12.690601 1e-06 16.371658 -17.36628 2.376153 -0.105919 -1.513855 -4.275883 -5.03904 -5.612871 -2.953555 4e-06 -11.020525 -3e-06 -6.111297 -15.895334 -3.840473 -0.0 0.0 1e-06 -10.28337 -5.68029 -4.341838 11.028295 -11.302404 -2.372637 -1.384269 -14.23858 -6.320121 -0.625438 -26.924187 -3.827601 -3.805499 -49.599899 -4.063574 -13.708524 -7.363477 -3.720938 18.14115 -14.05274 -3.242677 6e-06 -18.787271 -2e-06 -0.429713 -8.456047 2.555506 0.0 -1e-06 1e-06 -15.923536 -20.094484 -5.473587 30.419214 -7.190826 1.735927 3e-06 -8.162926 -0.0 -1.861905 -22.861471 -6.16794 0.0 -1e-06 -1e-06 -160.583511 -2.527779 -8.002003 13.037043 -0.219398 0.643586 -85.332153 8.78801 -2.52916 -11.363844 1.567763 2.143198 -0.999998 0.0 0.0 -21.936367 -8.602313 -11.304696 13.179768 0.163904 0.03123 -59.006989 -4.87839 -5.141344 -8.956884 0.89522 1.654798 -1.000002 -0.0 0.0 
0.0 0.0 0.0 0.0 -0.0 0.0 -46.470486 96.782478 366.959442 91.15538 3.247222 93.742821 1.943112 -1.532955 -0.327605 -10.368865 -0.817333 -1.037675 16.464479 0.573567 -3.823589 16.662144 0.019176 2.489075 -2.463656 -0.856962 -0.970278 -40.228088 -1.886002 -0.979923 7e-06 0.0 0.0 0.052994 0.017771 -0.004646 0.181231 -0.042013 -0.051138 0.212195 0.077296 0.047525 -119.784706 -77.001518 138.625305 32.854736 -41.94651 13.59887 36.626804 0.017604 -0.135005 1.039617 1.430945 10.456735 17.636625 -26.322733 52.411205 -19.466661 -14.395598 29.410395 -1e-06 -8.774821 -3e-06 15.946531 -17.729153 5.984524 -0.609776 -1.795653 -3.889327 -4.807089 -11.046809 -2.93785 5e-06 -20.976015 -1e-06 -5.019969 -25.03356 -4.031882 5e-06 1e-06 0.0 -10.634533 -5.686969 -3.565588 10.573271 -17.922947 -3.113898 2e-06 -13.821205 -1e-06 -0.501776 -31.181498 -4.027016 -11.192972 -59.637066 7.230263 -13.982712 -7.150198 -2.875041 13.772729 -8.401491 -3.218241 0.347735 -34.211544 0.771651 -0.963028 -17.733366 2.62102 -0.0 1e-06 -0.0 -17.346415 -20.095215 -4.201783 21.757557 -1.638374 3.866426 1e-06 -6.338823 0.0 -1.697586 -22.591745 -6.194006 -1e-06 -5e-06 -1e-06 63.351364 -77.461555 135.694092 26.215227 -50.069485 17.237719 37.187729 0.480001 0.155701 -0.895931 2.542798 1.17612 22.182119 -20.375902 49.933331 -16.701817 -16.74353 28.476534 -3e-06 -12.690603 3e-06 16.367353 -17.337667 2.3197 -0.10592 -1.513857 -4.275882 -5.039041 -5.61287 -2.953556 4e-06 -11.020526 -1e-06 -6.111299 -15.895334 -3.84047 0.0 -1e-06 -2e-06 -10.283371 -5.680289 -4.341837 11.028297 -11.302407 -2.372635 -1.384267 -14.238584 -6.320124 -0.625437 -26.924191 -3.8276 -3.757072 -49.486515 -4.099235 -13.708526 -7.363475 -3.720941 18.141153 -14.052741 -3.242676 8e-06 -18.787271 -2e-06 -0.429712 -8.456047 2.555505 1e-06 -1e-06 -0.0 -15.923536 -20.094484 -5.473587 30.419218 -7.190829 1.735926 4e-06 -8.162925 0.0 -1.861901 -22.861469 -6.167941 -1e-06 0.0 1e-06 -160.467102 -4.704702 -8.674659 16.027378 -0.265119 0.759462 -82.765244 10.084963 -3.090694 -15.179182 1.74605 2.099836 -1.0 -0.0 0.0 -21.347672 -7.289314 -11.112496 14.958532 0.160264 0.028711 -58.707397 -4.896252 -4.921098 -8.358415 0.799135 1.645793 -1.000003 1e-06 0.0 
0.0 0.0 0.0 0.0 -0.0 0.0 -47.823509 97.140869 369.835297 90.566101 3.161499 93.656494 1.839822 -1.252054 -0.329876 -10.495206 -0.830131 -1.086867 16.075756 0.55149 -3.693604 16.82361 -0.206382 2.511689 -2.442338 -0.91194 -0.978063 -39.73888 -1.729359 -1.308949 6e-06 0.0 0.0 0.040453 0.019403 0.018152 0.177806 -0.03749 -0.015182 0.217129 0.075363 0.055352 -118.534149 -77.259651 137.484055 32.721325 -42.481255 14.578375 35.908619 0.350774 -0.071461 0.156536 0.847423 10.808791 17.636631 -26.322741 52.411201 -19.466663 -14.395598 29.410395 -0.0 -8.774823 -3e-06 16.058296 -17.73554 5.963116 -0.609775 -1.795653 -3.889326 -4.807089 -11.046813 -2.93785 5e-06 -20.976021 -1e-06 -5.01997 -25.03356 -4.031881 5e-06 1e-06 -0.0 -10.634534 -5.686972 -3.565587 10.573274 -17.922953 -3.113897 2e-06 -13.821211 1e-06 -0.501778 -31.181507 -4.027016 -11.147048 -59.625511 7.169564 -13.982714 -7.150198 -2.875041 13.772731 -8.401493 -3.21824 0.347731 -34.211555 0.771656 -0.96303 -17.73337 2.621022 -1e-06 -1e-06 -1e-06 -17.34642 -20.095219 -4.201779 21.757557 -1.638375 3.866426 1e-06 -6.338824 0.0 -1.697588 -22.591747 -6.194005 0.0 -4e-06 -3e-06 65.76989 -77.927231 133.225143 27.148605 -50.810711 17.094376 37.65934 0.482748 0.071141 -1.148376 2.588423 0.618046 22.182112 -20.375898 49.933327 -16.701817 -16.74353 28.476532 -2e-06 -12.690602 0.0 16.370638 -17.41386 2.396694 -0.10592 -1.513856 -4.275884 -5.03904 -5.61287 -2.953554 4e-06 -11.020525 -2e-06 -6.111299 -15.895334 -3.840469 -0.0 -0.0 1e-06 -10.283369 -5.680288 -4.341836 11.028294 -11.302406 -2.372634 -1.384268 -14.238582 -6.320124 -0.625439 -26.924192 -3.8276 -3.90704 -49.637463 -3.933497 -13.708524 -7.363478 -3.720938 18.14115 -14.052739 -3.242676 5e-06 -18.787271 -1e-06 -0.429712 -8.456046 2.555503 0.0 -0.0 -1e-06 -15.923536 -20.094482 -5.473586 30.419214 -7.190826 1.735926 3e-06 -8.162925 0.0 -1.861902 -22.861473 -6.167944 -0.0 -3e-06 -0.0 -161.313522 -6.913593 -9.278187 20.816416 -0.363353 0.837738 -79.587601 11.460727 -3.265978 -19.720987 1.92234 2.051941 -0.999997 0.0 0.0 -19.87805 -5.803268 -11.133069 15.600033 0.143383 -0.056644 -59.737103 -4.933376 -4.43833 -7.639445 0.782845 1.628576 -1.000003 -1e-06 0.0 
